<svg width="2692" height="1807" viewBox="0 0 2692 1807" fill="none" xmlns="http://www.w3.org/2000/svg">
<path fill-rule="evenodd" clip-rule="evenodd" d="M2692 0H0V1807H2692V0ZM634 1806L642.5 1752L588.5 1733.5L590 1718.5L543.5 1702.5L546.5 1682.5L538 1677L530.5 1681.5L526.5 1679.5L527.5 1674L523.5 1671L685.5 1524.5L815 1408L823.5 1403L903 1327.5L1113.5 1139L1118 1137L1124 1132L1128 1132.5L1143.5 1118.5L1150.5 1110.5L1160.5 1105L1170 1097L1182.5 1091.5H1185L1203.5 1108L1207 1110L1220.5 1120.5L1228 1128.5L1244.5 1138L1253 1142.5L1264.5 1151.5L1315.5 1187L1364.5 1217.5L1392.5 1235L1393.5 1239L1524 1322.5L1534.5 1328L1541.5 1335.5L1549.5 1339.5L1557 1346.5L1571 1354.5L1651.5 1404.5L1774 1480.5L1865.5 1535.5L1868.5 1534L1869 1538L1894.5 1552L1897 1555.5L1901.5 1558L1907.5 1565L1945.5 1614.5L1961.5 1637.5L1970.5 1644L1973 1651.5L1988 1669L2006 1688L2069.5 1765.5L2107.5 1806.5L634 1806Z" fill="black"/>
</svg>
